<mxfile host="app.diagrams.net" modified="2022-04-02T18:48:58.883Z" agent="5.0 (Windows NT 10.0; Win64; x64) AppleWebKit/537.36 (KHTML, like Gecko) Chrome/98.0.4758.109 Safari/537.36 OPR/84.0.4316.52" etag="eDlk6-bemye76eE9H-lb" version="17.1.3" type="github">
  <diagram id="57BDWqkVTqYbe9oyHry6" name="Page-1">
    <mxGraphModel dx="1589" dy="868" grid="1" gridSize="10" guides="1" tooltips="1" connect="1" arrows="1" fold="1" page="1" pageScale="1" pageWidth="827" pageHeight="1169" math="0" shadow="0">
      <root>
        <mxCell id="0" />
        <mxCell id="1" parent="0" />
        <mxCell id="mV819WCVZiHG9n2FwB1h-8" style="edgeStyle=orthogonalEdgeStyle;rounded=0;orthogonalLoop=1;jettySize=auto;html=1;endArrow=none;endFill=0;" edge="1" parent="1" source="mV819WCVZiHG9n2FwB1h-1" target="mV819WCVZiHG9n2FwB1h-3">
          <mxGeometry relative="1" as="geometry" />
        </mxCell>
        <mxCell id="mV819WCVZiHG9n2FwB1h-9" style="rounded=0;orthogonalLoop=1;jettySize=auto;html=1;endArrow=none;endFill=0;" edge="1" parent="1" source="mV819WCVZiHG9n2FwB1h-1" target="mV819WCVZiHG9n2FwB1h-2">
          <mxGeometry relative="1" as="geometry" />
        </mxCell>
        <mxCell id="mV819WCVZiHG9n2FwB1h-11" style="edgeStyle=none;rounded=0;orthogonalLoop=1;jettySize=auto;html=1;endArrow=none;endFill=0;" edge="1" parent="1" source="mV819WCVZiHG9n2FwB1h-1" target="mV819WCVZiHG9n2FwB1h-5">
          <mxGeometry relative="1" as="geometry" />
        </mxCell>
        <mxCell id="mV819WCVZiHG9n2FwB1h-12" style="edgeStyle=none;rounded=0;orthogonalLoop=1;jettySize=auto;html=1;endArrow=none;endFill=0;" edge="1" parent="1" source="mV819WCVZiHG9n2FwB1h-1" target="mV819WCVZiHG9n2FwB1h-4">
          <mxGeometry relative="1" as="geometry" />
        </mxCell>
        <mxCell id="mV819WCVZiHG9n2FwB1h-13" style="edgeStyle=none;rounded=0;orthogonalLoop=1;jettySize=auto;html=1;endArrow=none;endFill=0;" edge="1" parent="1" source="mV819WCVZiHG9n2FwB1h-1" target="mV819WCVZiHG9n2FwB1h-6">
          <mxGeometry relative="1" as="geometry" />
        </mxCell>
        <mxCell id="mV819WCVZiHG9n2FwB1h-1" value="1 Владимир" style="ellipse;whiteSpace=wrap;html=1;aspect=fixed;" vertex="1" parent="1">
          <mxGeometry x="360" y="310" width="80" height="80" as="geometry" />
        </mxCell>
        <mxCell id="mV819WCVZiHG9n2FwB1h-10" style="edgeStyle=none;rounded=0;orthogonalLoop=1;jettySize=auto;html=1;endArrow=none;endFill=0;" edge="1" parent="1" source="mV819WCVZiHG9n2FwB1h-2" target="mV819WCVZiHG9n2FwB1h-3">
          <mxGeometry relative="1" as="geometry" />
        </mxCell>
        <mxCell id="mV819WCVZiHG9n2FwB1h-2" value="2 Ковров" style="ellipse;whiteSpace=wrap;html=1;aspect=fixed;" vertex="1" parent="1">
          <mxGeometry x="550" y="230" width="80" height="80" as="geometry" />
        </mxCell>
        <mxCell id="mV819WCVZiHG9n2FwB1h-14" style="edgeStyle=none;rounded=0;orthogonalLoop=1;jettySize=auto;html=1;endArrow=none;endFill=0;" edge="1" parent="1" source="mV819WCVZiHG9n2FwB1h-3" target="mV819WCVZiHG9n2FwB1h-7">
          <mxGeometry relative="1" as="geometry" />
        </mxCell>
        <mxCell id="mV819WCVZiHG9n2FwB1h-3" value="3 Вязники" style="ellipse;whiteSpace=wrap;html=1;aspect=fixed;" vertex="1" parent="1">
          <mxGeometry x="710" y="310" width="80" height="80" as="geometry" />
        </mxCell>
        <mxCell id="mV819WCVZiHG9n2FwB1h-4" value="4 Александров" style="ellipse;whiteSpace=wrap;html=1;aspect=fixed;" vertex="1" parent="1">
          <mxGeometry x="120" y="140" width="80" height="80" as="geometry" />
        </mxCell>
        <mxCell id="mV819WCVZiHG9n2FwB1h-5" value="5 Суздаль" style="ellipse;whiteSpace=wrap;html=1;aspect=fixed;" vertex="1" parent="1">
          <mxGeometry x="360" y="140" width="80" height="80" as="geometry" />
        </mxCell>
        <mxCell id="mV819WCVZiHG9n2FwB1h-6" value="6 Гусь-Хрустальный" style="ellipse;whiteSpace=wrap;html=1;aspect=fixed;" vertex="1" parent="1">
          <mxGeometry x="360" y="480" width="80" height="80" as="geometry" />
        </mxCell>
        <mxCell id="mV819WCVZiHG9n2FwB1h-15" style="edgeStyle=none;rounded=0;orthogonalLoop=1;jettySize=auto;html=1;endArrow=none;endFill=0;" edge="1" parent="1" source="mV819WCVZiHG9n2FwB1h-7" target="mV819WCVZiHG9n2FwB1h-1">
          <mxGeometry relative="1" as="geometry" />
        </mxCell>
        <mxCell id="mV819WCVZiHG9n2FwB1h-7" value="7 Муром" style="ellipse;whiteSpace=wrap;html=1;aspect=fixed;" vertex="1" parent="1">
          <mxGeometry x="710" y="480" width="80" height="80" as="geometry" />
        </mxCell>
      </root>
    </mxGraphModel>
  </diagram>
</mxfile>
